<?xml version="1.0" standalone="no"?>
<!DOCTYPE svg PUBLIC "-//W3C//DTD SVG 20010904//EN"
 "http://www.w3.org/TR/2001/REC-SVG-20010904/DTD/svg10.dtd">
<svg version="1.0" xmlns="http://www.w3.org/2000/svg"
 width="538.000000pt" height="546.000000pt" viewBox="0 0 538.000000 546.000000"
 preserveAspectRatio="xMidYMid meet">

<g transform="translate(0.000000,546.000000) scale(0.100000,-0.100000)"
fill="white" stroke="none">
<path d="M2887 5453 c-4 -3 -7 -79 -7 -167 0 -89 -5 -246 -10 -351 -12 -219
-16 -208 80 -218 203 -22 463 -102 665 -206 77 -40 142 -75 145 -79 3 -4 14
-12 25 -18 11 -6 21 -19 23 -27 4 -21 -49 -125 -127 -249 -33 -54 -61 -106
-61 -116 0 -21 131 -142 155 -142 8 0 18 7 21 15 4 8 10 12 15 9 5 -3 9 1 9 8
0 12 51 89 211 318 286 411 389 564 389 581 0 34 -293 242 -489 346 -58 31
-109 61 -113 67 -4 6 -8 8 -8 4 0 -4 -26 4 -57 18 -202 92 -459 164 -709 199
-119 17 -147 18 -157 8z"/>
<path d="M1800 5314 c-58 -19 -177 -70 -265 -113 -278 -137 -447 -261 -694
-511 -261 -264 -424 -486 -556 -755 -143 -293 -218 -536 -262 -850 -24 -168
-23 -545 1 -710 51 -355 160 -679 317 -952 27 -47 46 -90 42 -97 -3 -6 -3 -8
2 -4 4 4 33 -30 63 -75 94 -140 181 -247 312 -381 241 -247 496 -431 777 -562
194 -91 253 -109 268 -84 8 13 155 605 155 625 0 10 -24 26 -62 42 -361 154
-668 413 -881 744 -162 253 -273 556 -313 859 -12 95 -15 170 -11 310 8 246
40 415 124 645 56 154 203 430 235 443 4 2 8 9 8 14 0 21 114 163 188 236 183
179 460 352 732 456 142 55 140 53 140 78 0 67 -138 624 -165 669 -10 16 -47
10 -155 -27z"/>
<path d="M4895 3888 c-71 -44 -148 -90 -171 -103 -22 -12 -77 -45 -121 -73
-45 -28 -143 -88 -219 -133 -173 -103 -204 -126 -204 -151 0 -34 30 -126 49
-149 l17 -22 94 37 c51 21 116 49 143 62 74 38 87 32 114 -53 135 -434 94
-1006 -103 -1407 -24 -50 -26 -59 -14 -81 7 -14 21 -27 32 -31 10 -3 18 -9 18
-14 0 -11 456 -343 476 -346 45 -7 223 404 289 666 136 547 102 1115 -98 1640
-24 63 -58 143 -76 178 -29 57 -34 62 -64 61 -22 0 -73 -26 -162 -81z"/>
<path d="M2485 3919 c-390 -53 -753 -313 -928 -662 -54 -109 -72 -159 -97
-275 -73 -334 3 -685 204 -950 62 -81 219 -229 301 -283 412 -273 967 -275
1380 -6 49 33 105 73 123 90 17 17 32 28 32 25 0 -8 81 79 142 152 74 90 155
234 191 341 47 138 51 170 51 359 0 170 -2 193 -28 285 -125 457 -480 804
-926 906 -100 23 -338 33 -445 18z"/>
<path d="M3944 1175 c-189 -152 -445 -291 -659 -358 -89 -28 -321 -77 -364
-77 -57 0 -92 -12 -101 -35 -10 -26 3 -631 14 -642 21 -22 325 20 521 72 194
51 324 98 490 180 216 106 441 255 564 372 l44 42 -24 30 c-13 16 -73 87 -133
158 -59 70 -139 170 -178 221 -41 54 -77 92 -87 92 -10 0 -49 -25 -87 -55z"/>
</g>
</svg>
