<svg width="643" height="148" viewBox="0 0 643 148" fill="none" xmlns="http://www.w3.org/2000/svg">
<path d="M5.4364 5.74708V11.4941L22.367 14.756C31.6089 16.5422 61.0432 22.367 87.6816 27.6481C114.32 32.9292 136.609 37.2783 137.153 37.2783C138.085 37.2783 138.24 33.9388 138.24 18.6391V8.34465e-06H71.8383H5.4364V5.74708Z" fill="white"/>
<path d="M153.152 20.2701L153.385 40.6178L217.068 53.2769C252.094 60.1889 281.684 66.0913 282.927 66.3243L285.024 66.7126V33.3951V-5.7295e-06H219.01H152.996L153.152 20.2701Z" fill="white"/>
<path d="M300.401 31.4536L300.168 62.9071H315.157H330.068V69.3531V75.7215L359.968 81.6239L389.869 87.4486V75.1779V62.9071H405.013H420.157V31.4536V3.68059e-06H360.357H300.556L300.401 31.4536Z" fill="white"/>
<path d="M435.069 48.3064L435.302 96.5352L464.037 102.282C479.88 105.389 493.394 107.952 494.17 107.952C495.413 107.952 495.491 104.845 495.491 53.9758V6.4075e-07H465.202H434.913L435.069 48.3064Z" fill="white"/>
<path d="M510.246 55.7621V111.524L534.943 116.339C548.457 118.98 560.028 121.154 560.572 121.154C561.116 121.154 561.504 120.067 561.504 118.514V115.796L564.844 119.368L568.183 122.863L604.607 130.163C624.644 134.202 641.342 137.464 641.652 137.464C642.041 137.464 642.274 126.358 642.274 112.689V87.9923L634.74 80.5366L627.129 73.081L634.74 65.47L642.274 57.859V28.8907V2.12342e-05H616.878H591.404L576.493 14.9113L561.504 29.9003V14.9113V2.12342e-05H535.875H510.246V55.7621Z" fill="white"/>
<path d="M0 80.7696V147.56H66.4019H132.804V93.584C132.804 57.5484 132.571 39.6082 132.027 39.6082C131.561 39.6082 102.205 33.8611 66.7126 26.7938C31.2206 19.7264 1.70859 13.9794 1.08728 13.9794C0.155326 13.9794 0 24.1532 0 80.7696ZM73.7799 74.1683V83.8761H66.7903H59.8006V74.7119C59.8006 69.6638 60.0336 65.237 60.3442 65.004C60.5772 64.6934 63.7614 64.4604 67.3339 64.4604H73.7799V74.1683Z" fill="white"/>
<path d="M147.56 95.0596V147.56H177.072H206.584V140.57V133.581L243.318 133.425L279.975 133.192L280.208 101.195L280.364 69.1202L278.655 68.7318C277.646 68.4988 263.433 65.703 246.969 62.5188C200.759 53.4322 150.433 43.4137 148.958 43.0254C147.638 42.637 147.56 45.5106 147.56 95.0596ZM220.175 69.5085V73.3916L213.418 73.6246L206.584 73.8576V69.5085V65.1593L213.418 65.3923L220.175 65.6253V69.5085Z" fill="white"/>
<path d="M324.632 113V147.56H354.532H384.432V118.592V89.6232L355.93 84.0315C340.164 80.9249 326.729 78.4397 326.03 78.4397C324.709 78.4397 324.632 80.6143 324.632 113Z" fill="white"/>
<path d="M429.477 123.018V147.56H459.765H490.054V129.076V110.592L461.163 104.923C445.242 101.816 431.574 99.0981 430.875 98.8651C429.554 98.5545 429.477 100.108 429.477 123.018Z" fill="white"/>
<path d="M504.81 130.862V147.56H530.439H556.068V135.6V123.717L531.681 118.902C518.246 116.339 506.752 114.165 506.053 114.165C504.965 114.165 504.81 116.029 504.81 130.862Z" fill="white"/>
<path d="M574.785 136.376L585.968 147.56H611.364H636.837V143.677C636.837 141.502 636.76 139.794 636.682 139.794C636.527 139.794 620.062 136.532 600.025 132.493L563.679 125.271L574.785 136.376Z" fill="white"/>
</svg>
