<svg width="643" height="148" viewBox="0 0 643 148" fill="none" xmlns="http://www.w3.org/2000/svg">
<path d="M22.5561 13.7741L22.5567 13.7742C31.8016 15.561 61.2391 21.3864 87.8761 26.6672C101.195 29.3076 113.425 31.7149 122.394 33.462C126.879 34.3357 130.546 35.044 133.126 35.5338C134.417 35.7787 135.433 35.9686 136.142 36.0971C136.388 36.1416 136.595 36.1784 136.763 36.2075C136.875 35.7519 136.973 34.9561 137.048 33.6396C137.201 30.9266 137.24 26.2984 137.24 18.6391V1.00001H71.8383H6.4364V5.74708V10.6684L22.5561 13.7741Z" stroke="white" stroke-width="2"/>
<path d="M154.152 20.2586L154.152 20.2624L154.375 39.7951L217.262 52.2958C239.844 56.7522 260.159 60.7873 272.078 63.1549C278.651 64.4605 282.671 65.259 283.111 65.3414L284.024 65.5104V33.3951V0.999992H219.01H154.004L154.152 20.2586Z" stroke="white" stroke-width="2"/>
<path d="M301.401 31.4585L301.401 31.461L301.175 61.9071H315.157H330.068H331.068V62.9071V69.3531V74.8996L360.16 80.6424L360.162 80.6428L388.869 86.235V75.1779V62.9071V61.9071H389.869H405.013H419.157V31.4536V1H360.357H301.551L301.401 31.4585Z" stroke="white" stroke-width="2"/>
<path d="M436.069 48.3016L436.069 48.3032L436.298 95.7146L464.229 101.301C464.23 101.301 464.231 101.301 464.231 101.301C472.151 102.854 479.487 104.271 484.939 105.299C487.666 105.814 489.919 106.23 491.537 106.518C492.347 106.662 492.994 106.773 493.461 106.848C493.604 106.871 493.728 106.89 493.833 106.906C493.858 106.808 493.886 106.678 493.915 106.506C494.083 105.501 494.209 103.594 494.297 100.015C494.471 92.8956 494.491 79.418 494.491 53.9758V1H465.202H435.917L436.069 48.3016Z" stroke="white" stroke-width="2"/>
<path d="M560.504 14.9113V1.00002H535.875H511.246V55.7621V110.7L535.135 115.358L535.135 115.358C541.89 116.678 548.159 117.881 552.806 118.754C555.13 119.191 557.046 119.545 558.414 119.789C559.099 119.911 559.643 120.006 560.031 120.069C560.128 120.085 560.214 120.099 560.289 120.11C560.293 120.102 560.296 120.092 560.299 120.083C560.414 119.76 560.504 119.222 560.504 118.514V115.796V113.262L562.235 115.113L565.57 118.681L568.688 121.944L604.804 129.183L604.805 129.183C614.822 131.202 624.004 133.027 630.72 134.347C634.078 135.007 636.819 135.54 638.739 135.909C639.628 136.079 640.339 136.214 640.854 136.31C640.874 136.071 640.895 135.786 640.915 135.454C640.99 134.218 641.056 132.417 641.109 130.178C641.215 125.704 641.274 119.519 641.274 112.689V88.4096L634.041 81.251L634.037 81.2474L626.43 73.7953L625.708 73.0883L626.422 72.3739L634.03 64.7665L634.033 64.7629L641.274 57.4478V28.8907V1.00002H616.878H591.819L577.2 15.6184L562.211 30.6074L560.504 32.3145V29.9003V14.9113ZM641.759 136.47C641.759 136.47 641.755 136.47 641.748 136.469C641.756 136.47 641.759 136.47 641.759 136.47ZM640.759 137.07C640.757 137.077 640.757 137.078 640.758 137.073C640.759 137.072 640.759 137.071 640.759 137.07Z" stroke="white" stroke-width="2"/>
<path d="M74.7799 83.8761V84.8761H73.7799H66.7903H59.8006H58.8006V83.8761V74.7119C58.8006 72.175 58.8591 69.7872 58.9574 67.9974C59.0064 67.1052 59.0662 66.3459 59.1359 65.7858C59.1703 65.5091 59.2101 65.2563 59.2583 65.0516C59.282 64.9514 59.314 64.8345 59.3598 64.7213L59.3609 64.7185C59.3841 64.6611 59.4584 64.4768 59.6253 64.3079C59.7577 64.168 59.8986 64.0909 59.9694 64.055C60.0747 64.0015 60.1805 63.9637 60.2686 63.9364C60.4461 63.8813 60.653 63.838 60.8654 63.802C61.2961 63.7291 61.8622 63.6681 62.5106 63.6186C63.8138 63.5191 65.5292 63.4604 67.3339 63.4604H73.7799H74.7799V64.4604V74.1683V83.8761ZM1 80.7696V146.56H66.4019H131.804V93.584C131.804 75.5669 131.746 62.0788 131.62 53.0968C131.556 48.6041 131.477 45.2476 131.379 43.0181C131.33 41.9001 131.277 41.083 131.222 40.553C131.22 40.5305 131.217 40.5089 131.215 40.4879C130.986 40.4467 130.7 40.394 130.359 40.3305C129.44 40.159 128.114 39.9065 126.427 39.5817C123.053 38.9322 118.23 37.9927 112.312 36.8326C100.477 34.5121 84.2641 31.3083 66.5173 27.7745C48.7723 24.2411 32.5226 21.0377 20.6319 18.7178C14.6864 17.5578 9.83172 16.6189 6.42519 15.9701C4.72159 15.6456 3.38208 15.3941 2.45006 15.2238C2.14995 15.169 1.89344 15.1228 1.68141 15.0855C1.62739 15.4121 1.57275 15.8806 1.5211 16.5326C1.37825 18.3362 1.2717 21.3487 1.19403 26.1595C1.03886 35.7701 1 52.4585 1 80.7696ZM132.027 40.6082C131.997 40.6082 131.964 40.6064 131.932 40.6037C131.963 40.6066 131.994 40.6082 132.027 40.6082Z" stroke="white" stroke-width="2"/>
<path d="M148.56 95.0596V146.56H177.072H205.584V140.57V133.581V132.585L206.58 132.581L243.312 132.425L243.314 132.425L278.983 132.198L279.208 101.19L279.208 101.188L279.36 69.9175L278.434 69.707L278.43 69.7062C277.444 69.4785 263.26 66.688 246.779 63.5006L246.776 63.5C202.646 54.8225 154.673 45.2778 149.188 44.1012C149.18 44.136 149.172 44.1741 149.164 44.2155C148.99 45.1089 148.856 46.8956 148.763 50.3428C148.579 57.1891 148.56 70.2767 148.56 95.0596ZM148.676 43.9847C148.673 43.984 148.674 43.9844 148.678 43.9854L148.676 43.9847ZM221.175 73.3916V74.3577L220.209 74.391L213.453 74.624L213.452 74.624L206.618 74.857L205.584 74.8923V73.8576V69.5085V65.1593V64.1247L206.618 64.1599L213.452 64.3929L213.453 64.3929L220.209 64.6259L221.175 64.6592V65.6253V69.5085V73.3916Z" stroke="white" stroke-width="2"/>
<path d="M355.737 85.0128L355.737 85.0126C347.857 83.4599 340.56 82.0626 335.147 81.0537C332.44 80.5492 330.206 80.1422 328.607 79.8615C327.806 79.7211 327.169 79.6129 326.711 79.5402C326.52 79.5097 326.364 79.486 326.242 79.4688C326.235 79.4924 326.227 79.5187 326.219 79.5478C326.06 80.132 325.928 81.3048 325.835 83.6153C325.651 88.1816 325.632 96.7948 325.632 113V146.56H354.532H383.432V118.592V90.4461L355.737 85.0128Z" stroke="white" stroke-width="2"/>
<path d="M430.477 123.018V146.56H459.765H489.054V129.076V111.415L460.972 105.904C460.971 105.904 460.971 105.904 460.971 105.904C453.01 104.351 445.611 102.894 440.115 101.797C437.367 101.248 435.093 100.789 433.461 100.452C432.646 100.284 431.988 100.146 431.511 100.042C431.299 99.9958 431.105 99.9529 430.945 99.9153C430.85 100.295 430.753 101.007 430.679 102.291C430.497 105.468 430.477 111.545 430.477 123.018ZM430.609 99.8315C430.609 99.8316 430.612 99.8321 430.617 99.8326C430.611 99.8316 430.609 99.8314 430.609 99.8315Z" stroke="white" stroke-width="2"/>
<path d="M505.81 130.862V146.56H530.439H555.068V135.6V124.539L531.494 119.884C531.493 119.884 531.492 119.884 531.491 119.884C524.774 118.603 518.545 117.419 513.908 116.555C511.588 116.124 509.67 115.772 508.289 115.529C507.598 115.408 507.046 115.314 506.647 115.251C506.491 115.226 506.371 115.208 506.28 115.195C506.191 115.485 506.096 116.032 506.021 117.026C505.85 119.3 505.81 123.429 505.81 130.862Z" stroke="white" stroke-width="2"/>
<path d="M575.492 135.669L586.382 146.56H611.364H635.837V143.677C635.837 142.6 635.818 141.643 635.79 140.961C635.785 140.846 635.78 140.739 635.775 140.643C635.749 140.638 635.722 140.633 635.695 140.627C635.189 140.53 634.453 140.387 633.514 140.202C631.634 139.833 628.935 139.299 625.614 138.639C618.973 137.318 609.848 135.493 599.829 133.474C599.828 133.474 599.828 133.474 599.827 133.474L566.716 126.894L575.492 135.669ZM636.552 140.785C636.542 140.784 636.532 140.783 636.524 140.782C636.574 140.789 636.626 140.794 636.682 140.794C636.636 140.794 636.601 140.79 636.59 140.789C636.584 140.789 636.579 140.788 636.574 140.788C636.565 140.787 636.558 140.786 636.552 140.785Z" stroke="white" stroke-width="2"/>
</svg>
