<svg xmlns="http://www.w3.org/2000/svg" viewBox="0 0 48 48"><path fill="currentColor" d="M 40.503906 6 C 40.391984 5.9997187 40.279219 6.0118594 40.167969 6.0371094 L 20.503906 10.505859 C 18.440906 10.975859 17 12.779531 17 14.894531 L 17 15.5 L 17 20.5 L 17 32.201172 A 7.5 6 0 0 0 12.5 31 A 7.5 6 0 0 0 12.5 43 A 7.5 6 0 0 0 19.986328 36.720703 A 1.50015 1.50015 0 0 0 20 36.5 L 20 21.697266 L 39 17.378906 L 39 28.201172 A 7.5 6 0 0 0 34.5 27 A 7.5 6 0 0 0 34.5 39 A 7.5 6 0 0 0 41.986328 32.720703 A 1.50015 1.50015 0 0 0 42 32.5 L 42 15.5 L 42 12.5 L 42 7.5 C 42 7.044 41.791547 6.612125 41.435547 6.328125 C 41.168547 6.114375 40.839672 6.0008438 40.503906 6 z"/></svg>