<svg xmlns="http://www.w3.org/2000/svg" viewBox="0 0 48 48"><path fill="currentColor" d="M 18.5 9 C 16.019 9 14 11.019 14 13.5 L 14 16.5 C 14 17.425 14.281719 18.284 14.761719 19 L 30.853516 19 L 32.064453 18.394531 C 32.698623 18.077446 33.19972 17.587026 33.535156 17 L 41.001953 17 A 2.5 2.5 0 0 0 43 18 A 2.5 2.5 0 0 0 43 13 A 2.5 2.5 0 0 0 41.001953 14 L 33.914062 14 C 33.695386 12.972552 33.032984 12.088923 32.064453 11.605469 L 28.015625 9.5800781 C 27.256625 9.2000781 26.405641 9 25.556641 9 L 18.5 9 z M 14.972656 21 C 12.876656 21 10.991734 22.164062 10.052734 24.039062 L 9.5722656 25 L 8.0019531 25 C 6.7253728 25 5.4351855 25.493081 4.4648438 26.464844 C 2.5247097 28.404978 2.5247097 31.595022 4.4648438 33.535156 L 7.4648438 36.535156 C 8.4341028 37.504415 9.7223036 38 11 38 L 37 38 C 38.277696 38 39.565366 37.505482 40.535156 36.537109 A 1.50015 1.50015 0 0 0 40.535156 36.535156 L 43.535156 33.535156 C 45.47529 31.595022 45.47529 28.404978 43.535156 26.464844 C 42.564282 25.494016 41.276006 25 40 25 L 38.427734 25 L 37.947266 24.039062 C 37.009266 22.164062 35.123344 21 33.027344 21 L 14.972656 21 z M 8.0019531 28 L 40 28 C 40.513994 28 41.016937 28.188811 41.414062 28.585938 C 42.207929 29.379803 42.207929 30.620198 41.414062 31.414062 L 38.414062 34.414062 C 38.016076 34.81073 37.513698 35 37 35 L 11 35 C 10.485696 35 9.9826783 34.810803 9.5859375 34.414062 L 6.5859375 31.414062 C 5.7920716 30.620197 5.7920716 29.379802 6.5859375 28.585938 A 1.50015 1.50015 0 0 0 6.5878906 28.583984 C 6.9835519 28.187793 7.4865335 28 8.0019531 28 z M 13.5 29 A 2.5 2.5 0 0 0 13.5 34 A 2.5 2.5 0 0 0 13.5 29 z M 20.5 29 A 2.5 2.5 0 0 0 20.5 34 A 2.5 2.5 0 0 0 20.5 29 z M 27.5 29 A 2.5 2.5 0 0 0 27.5 34 A 2.5 2.5 0 0 0 27.5 29 z M 34.5 29 A 2.5 2.5 0 0 0 34.5 34 A 2.5 2.5 0 0 0 34.5 29 z"/></svg>